<svg width="30" height="22" viewBox="0 0 30 22" fill="none" xmlns="http://www.w3.org/2000/svg">
<path d="M29.3805 3.61218C29.2138 2.95571 28.8795 2.35623 28.4118 1.87499C27.944 1.39374 27.3596 1.04798 26.7182 0.873043C22.8296 0.4045 18.9154 0.193358 15 0.240939C11.0847 0.193358 7.17048 0.4045 3.28185 0.873043C2.64048 1.04798 2.05606 1.39374 1.5883 1.87499C1.12053 2.35623 0.786219 2.95571 0.619484 3.61218C0.193524 6.05238 -0.0135777 8.52724 0.000765328 11.0059C-0.0142902 13.4973 0.192812 15.9849 0.619484 18.4379C0.794863 19.0838 1.13302 19.6712 1.60021 20.1419C2.06738 20.6125 2.64723 20.9496 3.28185 21.1195C7.17048 21.5881 11.0847 21.7993 15 21.7516C18.9154 21.7993 22.8296 21.5881 26.7182 21.1195C27.3528 20.9496 27.9327 20.6125 28.3998 20.1419C28.867 19.6712 29.2052 19.0838 29.3805 18.4379C29.8072 15.9849 30.0142 13.4973 29.9992 11.0059C30.0137 8.52724 29.8065 6.05238 29.3805 3.61218ZM11.9251 15.5838V6.46621L19.781 11.0059L11.9251 15.5647V15.5838Z" fill="#8E8A83"/>
</svg>
