<svg width="21" height="24" viewBox="0 0 21 24" fill="none" xmlns="http://www.w3.org/2000/svg">
<path d="M17.6344 5.3144C17.4786 5.23294 17.327 5.14364 17.1801 5.04684C16.7529 4.76102 16.3611 4.42423 16.0134 4.04374C15.1433 3.03627 14.8183 2.0142 14.6986 1.2986H14.7034C14.6034 0.704623 14.6448 0.320312 14.651 0.320312H10.688V15.828C10.688 16.0362 10.688 16.2419 10.6793 16.4453C10.6793 16.4706 10.6769 16.4939 10.6755 16.5212C10.6755 16.5324 10.6755 16.544 10.673 16.5557C10.673 16.5586 10.673 16.5615 10.673 16.5645C10.6313 17.1209 10.455 17.6584 10.1598 18.1297C9.86456 18.601 9.4594 18.9916 8.97995 19.2673C8.48026 19.555 7.9151 19.7059 7.34021 19.7051C5.49375 19.7051 3.99727 18.1815 3.99727 16.2998C3.99727 14.4182 5.49375 12.8945 7.34021 12.8945C7.68973 12.8942 8.0371 12.9499 8.36943 13.0595L8.37424 8.97604C7.36538 8.84417 6.34046 8.92531 5.36414 9.21434C4.38781 9.50337 3.48128 9.99402 2.70172 10.6553C2.01865 11.2559 1.44438 11.9725 1.00477 12.7729C0.837483 13.0648 0.206296 14.2377 0.129861 16.1412C0.0817888 17.2217 0.40243 18.341 0.5553 18.8037V18.8134C0.651444 19.0858 1.024 20.0155 1.63115 20.7992C2.12074 21.4278 2.69917 21.98 3.34781 22.4381V22.4284L3.35743 22.4381C5.27599 23.7574 7.40318 23.6708 7.40318 23.6708C7.77141 23.6557 9.00495 23.6708 10.4058 22.999C11.9595 22.2542 12.844 21.1446 12.844 21.1446C13.4091 20.4815 13.8584 19.726 14.1727 18.9102C14.5313 17.9563 14.651 16.8121 14.651 16.3548V8.12764C14.6991 8.15683 15.3394 8.58541 15.3394 8.58541C15.3394 8.58541 16.2619 9.18377 17.7012 9.57343C18.7338 9.85072 20.125 9.90909 20.125 9.90909V5.92783C19.6375 5.98135 18.6477 5.82568 17.6344 5.3144Z" fill="#8E8A83"/>
</svg>
