<svg width="100" height="44" viewBox="0 0 100 44" fill="none" xmlns="http://www.w3.org/2000/svg">
<path d="M34.6071 12.9361C35.1138 26.7589 25.1546 43.6208 12.3977 43.9922C5.08776 44.2054 0.346233 40.0344 0.0186286 31.0617C-0.488066 17.239 9.4034 0.379161 22.1603 0.00777114C29.4681 -0.205394 34.2773 3.96341 34.6071 12.9361ZM30.9401 9.39142C30.7261 3.56345 28.376 0.205553 22.4835 0.376964C19.9304 0.451681 17.5476 1.60321 15.3221 3.47335C7.76319 10.0089 3.27065 25.1744 3.61791 34.6064C3.83194 40.4344 6.18195 43.7923 12.0745 43.6208C14.6931 43.5439 17.0759 42.3924 19.2359 40.5245C26.7904 33.868 31.2874 18.8234 30.9401 9.39142Z" fill="#8E8A83"/>
<path d="M51.1092 1.38501C51.1659 1.38501 51.2009 1.43775 51.1812 1.49049C50.9432 2.09263 49.731 5.19341 48.473 9.0985L39.8025 35.7287C38.9834 38.3197 38.2802 40.2623 38.2802 41.616C38.2802 42.7346 38.7934 43.0884 39.453 43.1038C41.5409 43.1565 44.6641 37.5945 47.001 31.4215C47.0229 31.3643 47.06 31.272 47.0884 31.2061C47.1189 31.1314 47.1779 31.0127 47.2718 31.0039C47.4072 30.9885 47.3963 31.1182 47.3592 31.2193C47.3221 31.3204 47.2871 31.4171 47.2565 31.4962C44.924 37.6582 41.9275 43.796 38.7498 43.796C36.878 43.796 35.6484 42.6181 35.6484 40.381C35.6484 38.4977 36.5854 35.6694 37.2275 33.6103L46.4244 5.21099C46.5991 4.68137 46.8656 3.65071 46.9442 3.12769C47.0906 2.14317 46.811 1.81793 45.2276 1.71465C43.9827 1.63114 42.2748 1.61356 41.9712 1.61356C41.9515 1.61356 41.9341 1.59817 41.9515 1.56741C41.9756 1.52565 42.0367 1.45973 42.0782 1.40918C42.1022 1.38061 42.1219 1.38501 42.1503 1.38281C42.2245 1.38281 50.0718 1.38281 51.1113 1.38281L51.1092 1.38501Z" fill="#8E8A83"/>
<path d="M64.8592 1.38281C64.9159 1.38281 64.9509 1.43555 64.9312 1.4883C64.6932 2.09043 63.481 5.19121 62.223 9.0963L53.5525 35.7265C52.7334 38.3175 52.0302 40.2601 52.0302 41.6138C52.0302 42.7324 52.5434 43.0862 53.203 43.1016C55.2909 43.1543 58.4141 37.5923 60.751 31.4193C60.7729 31.3621 60.81 31.2698 60.8384 31.2039C60.8689 31.1292 60.9279 31.0105 61.0218 31.0017C61.1572 30.9863 61.1463 31.116 61.1092 31.2171C61.0721 31.3182 61.0371 31.4149 61.0065 31.494C58.674 37.656 55.6775 43.7938 52.4998 43.7938C50.628 43.7938 49.3984 42.6159 49.3984 40.3788C49.3984 38.4955 50.3354 35.6672 50.9775 33.6081L60.1766 5.21099C60.3513 4.68137 60.6178 3.65071 60.6964 3.12769C60.8427 2.14317 60.5632 1.81793 58.9798 1.71465C57.7349 1.63114 56.027 1.61356 55.7234 1.61356C55.7037 1.61356 55.6863 1.59817 55.7037 1.56741C55.7277 1.52565 55.7889 1.45973 55.8304 1.40918C55.8544 1.38061 55.8741 1.38501 55.9025 1.38281C55.9767 1.38281 63.8239 1.38281 64.8635 1.38281H64.8592Z" fill="#8E8A83"/>
<path d="M100.003 23.8845C100.003 32.5979 93.9163 43.7857 85.9009 43.7857C81.3363 43.7857 78.8203 40.7245 78.8203 35.3075C78.8203 26.5941 84.9072 15.4062 92.9226 15.4062C97.4872 15.4062 100.003 18.4675 100.003 23.8845ZM97.4894 20.8277C97.4894 17.9247 96.5087 15.7754 93.1038 15.7754C91.7192 15.7754 90.3913 16.4721 89.1792 17.5753C84.3328 22.1616 81.3319 34.0659 81.3319 38.3621C81.3319 41.2651 82.3126 43.4143 85.7175 43.4143C87.1021 43.4143 88.43 42.7177 89.6422 41.5574C94.5475 37.0875 97.4894 25.1261 97.4894 20.8299V20.8277Z" fill="#8E8A83"/>
<path d="M76.1182 6.28125C77.4068 6.28125 78.4006 7.34048 78.4006 8.57772C78.4006 9.87209 77.4046 10.8742 76.1182 10.8742C74.8318 10.8742 73.8359 9.87209 73.8359 8.57772C73.8359 7.34048 74.8318 6.28125 76.1182 6.28125Z" fill="#8E8A83"/>
<path d="M75.9144 31.2146C75.8772 31.3157 75.8379 31.4124 75.8073 31.4893C73.4748 37.6535 70.4805 43.7935 67.3005 43.7935C66.4379 43.7935 65.6494 43.4485 65.1777 43.053C64.7059 42.6574 64.5989 42.3607 64.5028 42.1476C64.3062 41.719 64.1905 41.1938 64.1905 40.5543C64.1905 38.4952 65.2432 35.7856 66.2435 33.3704L70.2228 23.477C70.8081 22.0749 71.5463 20.1257 71.9809 18.6379C72.1644 18.0072 72.2539 17.6116 72.2496 17.0842C72.2408 16.2601 71.6358 15.7745 70.9588 15.8536C70.5285 15.9041 70.0568 16.1371 69.6855 16.3744C67.6565 17.6732 65.2694 21.5035 63.1771 26.6766C63.1574 26.7338 63.1159 26.8217 63.0832 26.892C63.0504 26.9623 62.9893 27.081 62.8954 27.0854C62.7621 27.1008 62.7774 26.9733 62.8167 26.8722C62.8561 26.7711 62.891 26.6766 62.9238 26.5931C65.3917 20.4883 68.3816 15.4141 71.5572 15.4141C72.2867 15.4141 72.9135 15.5987 73.4136 15.9613C73.4267 15.9679 73.4333 15.9744 73.4464 15.9876C73.4966 16.0206 73.5425 16.0514 73.5862 16.0953C73.6495 16.1459 73.7128 16.203 73.7762 16.2667C74.3091 16.7634 74.6695 17.5413 74.6695 18.6511C74.6695 20.7674 73.5534 23.477 72.6165 25.835L68.6372 35.7219C67.8902 37.5195 66.7436 40.1719 66.7109 41.7146C66.748 42.7475 67.2765 43.1606 68.006 43.0991C68.4406 43.0618 68.967 42.7739 69.4868 42.3475C71.4568 40.7367 73.7041 36.302 75.554 31.419C75.5736 31.3619 75.6173 31.2718 75.6435 31.2014C75.6763 31.1245 75.7331 31.0103 75.827 30.9971C75.9668 30.9839 75.9537 31.1113 75.9165 31.2146H75.9144Z" fill="#8E8A83"/>
</svg>
