<svg width="22" height="21" viewBox="0 0 22 21" fill="none" xmlns="http://www.w3.org/2000/svg">
<path d="M16.4476 7.15967C16.4476 8.24968 16.128 9.31522 15.5291 10.2215C14.9302 11.1279 14.0789 11.8342 13.083 12.2514C12.0871 12.6685 10.9912 12.7776 9.93394 12.565C8.87667 12.3523 7.9055 11.8275 7.14326 11.0567C6.38101 10.2859 5.86191 9.30393 5.6516 8.23485C5.4413 7.16578 5.54924 6.05765 5.96176 5.05061C6.37429 4.04356 7.07288 3.18283 7.96919 2.57725C8.86549 1.97167 9.91927 1.64844 10.9973 1.64844C12.4428 1.64844 13.8291 2.22908 14.8512 3.26264C15.8734 4.29619 16.4476 5.698 16.4476 7.15967Z" stroke="white" stroke-width="1.4" stroke-miterlimit="10"/>
<path d="M1 20.6492C1.58058 19.6724 2.35476 18.8277 3.27386 18.1682C5.54616 16.5862 8.25123 15.7633 11.0096 15.8148C13.7385 15.7655 16.4159 16.5699 18.6755 18.1179C19.6132 18.7792 20.4048 19.6303 21 20.6173" stroke="white" stroke-width="1.4" stroke-miterlimit="10"/>
</svg>
