<svg width="22" height="22" viewBox="0 0 22 22" fill="none" xmlns="http://www.w3.org/2000/svg">
<path d="M19.6155 19.7376L12.5791 9.29419L11.7836 8.11307L6.75031 0.642535L6.33329 0.0234375H0.148438L1.65687 2.26288L8.34925 12.197L9.14474 13.3768L14.5219 21.3587L14.9391 21.9772H21.124L19.6155 19.7378V19.7376ZM15.6741 20.5478L10.0877 12.2555L9.29217 11.0751L2.80962 1.45271H5.59808L10.8405 9.23441L11.636 10.4148L18.4626 20.5476H15.6741V20.5478Z" fill="#8E8A83"/>
<path d="M9.29295 11.0781L10.0884 12.2585L9.14534 13.3799L1.90938 21.9802H0.125L8.34985 12.2L9.29295 11.0781Z" fill="#8E8A83"/>
<path d="M20.3824 0.0234375L12.5823 9.29419L11.6392 10.4148L10.8438 9.23442L11.7868 8.11307L17.0705 1.83016L18.598 0.0234375H20.3824Z" fill="#8E8A83"/>
</svg>
