<svg xmlns="http://www.w3.org/2000/svg" width="78" height="34" viewBox="0 0 78 34" fill="none">
<path d="M26.9077 9.99608C27.3017 20.6773 19.5582 33.707 9.63946 33.994C3.95583 34.1587 0.269203 30.9357 0.0144841 24.0022C-0.379481 13.321 7.31133 0.292988 17.2301 0.00600497C22.912 -0.158713 26.6513 3.06263 26.9077 9.99608ZM24.0566 7.257C23.8901 2.75357 22.063 0.158836 17.4814 0.29129C15.4963 0.349026 13.6436 1.23884 11.9133 2.68395C6.03604 7.73418 2.54299 19.4529 2.813 26.7413C2.97941 31.2447 4.8066 33.8395 9.38814 33.707C11.4242 33.6476 13.2768 32.7578 14.9563 31.3144C20.8301 26.1707 24.3266 14.5454 24.0566 7.257Z" fill="#47423E"/>
<path d="M39.7398 1.0642C39.7839 1.0642 39.8111 1.10495 39.7958 1.14571C39.6107 1.61099 38.6683 4.00705 37.6901 7.02462L30.9486 27.6025C30.3118 29.6046 29.765 31.1057 29.765 32.1518C29.765 33.0161 30.1641 33.2895 30.6769 33.3014C32.3003 33.3422 34.7286 29.0442 36.5456 24.2742C36.5626 24.23 36.5915 24.1587 36.6135 24.1078C36.6373 24.05 36.6832 23.9583 36.7562 23.9515C36.8615 23.9397 36.853 24.0398 36.8241 24.118C36.7952 24.1961 36.7681 24.2708 36.7443 24.3319C34.9307 29.0935 32.6009 33.8363 30.1301 33.8363C28.6748 33.8363 27.7188 32.9261 27.7188 31.1974C27.7188 29.7422 28.4472 27.5567 28.9465 25.9655L36.0973 4.02064C36.2332 3.61139 36.4403 2.81497 36.5015 2.41081C36.6152 1.65005 36.3979 1.39873 35.1667 1.31892C34.1988 1.25439 32.8709 1.2408 32.6348 1.2408C32.6195 1.2408 32.606 1.22892 32.6195 1.20514C32.6382 1.17288 32.6858 1.12193 32.718 1.08288C32.7367 1.0608 32.752 1.0642 32.7741 1.0625C32.8318 1.0625 38.9332 1.0625 39.7415 1.0625L39.7398 1.0642Z" fill="#47423E"/>
<path d="M50.4273 1.0625C50.4714 1.0625 50.4986 1.10326 50.4833 1.14401C50.2982 1.6093 49.3558 4.00535 48.3777 7.02292L41.6361 27.6008C40.9993 29.6029 40.4525 31.104 40.4525 32.1501C40.4525 33.0144 40.8516 33.2878 41.3644 33.2997C42.9878 33.3405 45.4161 29.0425 47.2331 24.2725C47.2501 24.2283 47.279 24.157 47.301 24.1061C47.3248 24.0483 47.3707 23.9566 47.4437 23.9498C47.549 23.938 47.5405 24.0381 47.5116 24.1163C47.4827 24.1944 47.4556 24.2691 47.4318 24.3302C45.6182 29.0918 43.2884 33.8346 40.8176 33.8346C39.3623 33.8346 38.4062 32.9244 38.4062 31.1957C38.4062 29.7405 39.1347 27.555 39.634 25.9638L46.7865 4.02064C46.9224 3.61139 47.1295 2.81497 47.1907 2.41081C47.3044 1.65005 47.0871 1.39873 45.8559 1.31892C44.888 1.25439 43.5601 1.2408 43.324 1.2408C43.3087 1.2408 43.2952 1.22892 43.3087 1.20514C43.3274 1.17288 43.375 1.12193 43.4072 1.08288C43.4259 1.0608 43.4412 1.0642 43.4633 1.0625C43.521 1.0625 49.6224 1.0625 50.4307 1.0625H50.4273Z" fill="#47423E"/>
<path d="M77.7514 18.4576C77.7514 25.1907 73.0187 33.8359 66.7866 33.8359C63.2375 33.8359 61.2812 31.4704 61.2812 27.2845C61.2812 20.5514 66.0139 11.9062 72.246 11.9062C75.7951 11.9062 77.7514 14.2717 77.7514 18.4576ZM75.7968 16.0955C75.7968 13.8523 75.0344 12.1915 72.387 12.1915C71.3104 12.1915 70.2779 12.7298 69.3355 13.5823C65.5673 17.1263 63.2341 26.325 63.2341 29.6449C63.2341 31.8881 63.9966 33.5489 66.6439 33.5489C67.7205 33.5489 68.753 33.0106 69.6955 32.114C73.5095 28.66 75.7968 19.4171 75.7968 16.0972V16.0955Z" fill="#47423E"/>
<path d="M59.1808 4.85156C60.1827 4.85156 60.9553 5.67006 60.9553 6.6261C60.9553 7.6263 60.181 8.40065 59.1808 8.40065C58.1806 8.40065 57.4062 7.6263 57.4062 6.6261C57.4062 5.67006 58.1806 4.85156 59.1808 4.85156Z" fill="#47423E"/>
<path d="M59.0255 24.1158C58.9966 24.1939 58.9661 24.2686 58.9423 24.328C57.1287 29.0913 54.8006 33.8358 52.3281 33.8358C51.6573 33.8358 51.0443 33.5692 50.6775 33.2636C50.3107 32.9579 50.2275 32.7287 50.1528 32.564C50 32.2328 49.91 31.827 49.91 31.3328C49.91 29.7417 50.7284 27.6479 51.5062 25.7816L54.6002 18.1367C55.0553 17.0533 55.6292 15.547 55.9672 14.3974C56.1098 13.91 56.1794 13.6044 56.176 13.1968C56.1692 12.56 55.6989 12.1847 55.1724 12.2459C54.8379 12.2849 54.4711 12.4649 54.1824 12.6483C52.6049 13.6519 50.7488 16.6118 49.122 20.6091C49.1067 20.6533 49.0745 20.7212 49.049 20.7756C49.0235 20.8299 48.976 20.9216 48.903 20.925C48.7994 20.9369 48.8113 20.8384 48.8418 20.7603C48.8724 20.6822 48.8996 20.6091 48.925 20.5446C50.8439 15.8272 53.1687 11.9062 55.6377 11.9062C56.2049 11.9062 56.6923 12.0489 57.0811 12.3291C57.0913 12.3342 57.0964 12.3393 57.1066 12.3495C57.1457 12.3749 57.1813 12.3987 57.2153 12.4327C57.2645 12.4717 57.3138 12.5159 57.363 12.5651C57.7774 12.9489 58.0576 13.55 58.0576 14.4076C58.0576 16.0429 57.1898 18.1367 56.4613 19.9588L53.3673 27.5986C52.7866 28.9877 51.8951 31.0373 51.8696 32.2294C51.8985 33.0275 52.3094 33.3468 52.8766 33.2992C53.2145 33.2704 53.6238 33.0479 54.0279 32.7185C55.5596 31.4738 57.307 28.0469 58.7453 24.2737C58.7606 24.2296 58.7946 24.1599 58.8149 24.1056C58.8404 24.0462 58.8846 23.9579 58.9576 23.9477C59.0663 23.9375 59.0561 24.036 59.0272 24.1158H59.0255Z" fill="#47423E"/>
</svg>